<svg width="79" height="79" viewBox="0 0 79 79" fill="none" xmlns="http://www.w3.org/2000/svg">
<circle cx="39.5" cy="39.5" r="39.5" fill="#18A0FB"/>
<mask id="mask0_983_1563" style="mask-type:alpha" maskUnits="userSpaceOnUse" x="20" y="19" width="40" height="40">
<rect x="20" y="19" width="40" height="40" fill="#D9D9D9"/>
</mask>
<g mask="url(#mask0_983_1563)">
<path d="M55.2537 38.751C55.1131 34.3492 53.5872 30.6042 50.676 27.5161C47.7648 24.428 44.2045 22.8284 39.9952 22.7175V19C42.5553 19.0746 44.9668 19.6387 47.2298 20.6923C49.4919 21.7468 51.4648 23.1617 53.1486 24.937C54.8323 26.7123 56.1743 28.7832 57.1744 31.1497C58.1737 33.517 58.691 36.0508 58.7264 38.751H55.2537ZM46.5188 38.751C46.3791 36.9012 45.6951 35.3385 44.4668 34.0629C43.2393 32.7865 41.7488 32.0928 39.9952 31.9818V28.2657C42.7312 28.3766 45.0548 29.4401 46.9659 31.4559C48.8778 33.4709 49.8863 35.9026 49.9916 38.751H46.5188ZM56.5695 59C52.2196 59 47.9138 57.9091 43.6523 55.7272C39.3899 53.5445 35.5838 50.6872 32.2339 47.1553C28.8841 43.6233 26.1741 39.6103 24.104 35.1161C22.0347 30.6228 21 26.083 21 21.4965C21 20.7944 21.2193 20.2121 21.6579 19.7496C22.0965 19.2872 22.6488 19.0559 23.3147 19.0559H31.0494C31.5411 19.0559 31.9797 19.2317 32.3653 19.5832C32.7509 19.9347 32.979 20.3878 33.0497 20.9426L34.4704 28.2098C34.5403 28.7273 34.5314 29.1991 34.4439 29.6251C34.3563 30.0503 34.1719 30.4107 33.8907 30.7063L28.6817 36.2545C30.4706 39.4349 32.5492 42.2643 34.9174 44.7426C37.2848 47.22 39.9417 49.3282 42.8883 51.0671L47.8877 45.7412C48.2034 45.3338 48.5978 45.0471 49.071 44.8811C49.5449 44.7142 50.0273 44.6863 50.5181 44.7972L57.0949 46.2951C57.621 46.4061 58.0508 46.6741 58.3842 47.0993C58.7176 47.5254 58.8843 48.0158 58.8843 48.5706V56.5594C58.8843 57.2615 58.6649 57.8438 58.2263 58.3063C57.7877 58.7688 57.2354 59 56.5695 59ZM26.9453 32.814L30.9446 28.5426L29.8397 22.7734H24.5258C24.5956 24.2158 24.8234 25.7599 25.2089 27.4056C25.5954 29.0513 26.1741 30.8541 26.9453 32.814ZM46.1514 52.842C47.5893 53.545 49.1063 54.0998 50.7025 54.5063C52.2987 54.9128 53.8507 55.1716 55.3585 55.2825V49.6797L50.0976 48.5706L46.1514 52.842Z" fill="white"/>
</g>
</svg>
