<svg width="40" height="41" viewBox="0 0 40 41" fill="none" xmlns="http://www.w3.org/2000/svg">
<mask id="mask0_189_1607" style="mask-type:alpha" maskUnits="userSpaceOnUse" x="0" y="0" width="40" height="41">
<rect y="0.511719" width="40" height="40" fill="white"/>
</mask>
<g mask="url(#mask0_189_1607)">
<path d="M28.333 26.8867C26.9443 26.8867 25.764 26.4007 24.792 25.4287C23.8193 24.4561 23.333 23.2754 23.333 21.8867C23.333 20.4981 23.8193 19.3174 24.792 18.3447C25.764 17.3727 26.9443 16.8867 28.333 16.8867C29.7223 16.8867 30.903 17.3727 31.875 18.3447C32.847 19.3174 33.333 20.4981 33.333 21.8867C33.333 23.2754 32.847 24.4561 31.875 25.4287C30.903 26.4007 29.7223 26.8867 28.333 26.8867ZM28.333 24.1367C28.9723 24.1367 29.5003 23.9214 29.917 23.4907C30.3337 23.0601 30.542 22.5254 30.542 21.8867C30.542 21.2754 30.3337 20.7544 29.917 20.3237C29.5003 19.8937 28.9723 19.6787 28.333 19.6787C27.6943 19.6787 27.1667 19.8937 26.75 20.3237C26.3333 20.7544 26.125 21.2754 26.125 21.8867C26.125 22.5254 26.3333 23.0601 26.75 23.4907C27.1667 23.9214 27.6943 24.1367 28.333 24.1367ZM18.333 38.5537V33.7197C18.333 33.1364 18.472 32.5877 18.75 32.0737C19.028 31.5604 19.417 31.1507 19.917 30.8447C20.7223 30.3727 21.5693 29.9631 22.458 29.6157C23.3473 29.2684 24.264 28.9837 25.208 28.7617L28.333 32.7617L31.458 28.7617C32.4027 28.9837 33.3127 29.2684 34.188 29.6157C35.0627 29.9631 35.9027 30.3727 36.708 30.8447C37.208 31.1507 37.604 31.5604 37.896 32.0737C38.1873 32.5877 38.333 33.1364 38.333 33.7197V38.5537H18.333ZM21.083 35.8037H27.167L24.125 31.9287C23.597 32.1227 23.076 32.3447 22.562 32.5947C22.0487 32.8447 21.5557 33.1087 21.083 33.3867V35.8037ZM29.5 35.8037H35.542V33.3867C35.0973 33.1087 34.625 32.8447 34.125 32.5947C33.625 32.3447 33.0973 32.1227 32.542 31.9287L29.5 35.8037ZM7.792 35.5117C7.014 35.5117 6.354 35.2411 5.812 34.6997C5.27067 34.1577 5 33.4977 5 32.7197V8.30372C5 7.52572 5.27067 6.86572 5.812 6.32372C6.354 5.78239 7.014 5.51172 7.792 5.51172H32.208C32.986 5.51172 33.646 5.78239 34.188 6.32372C34.7293 6.86572 35 7.52572 35 8.30372V17.9287C34.6387 17.3727 34.236 16.8517 33.792 16.3657C33.3473 15.8797 32.8193 15.4977 32.208 15.2197V8.30372H7.792V32.7197H15.625C15.597 32.8864 15.576 33.0531 15.562 33.2197C15.5487 33.3864 15.542 33.5531 15.542 33.7197V35.5117H7.792ZM11.667 14.9697H25.042C25.542 14.6924 26.0697 14.4841 26.625 14.3447C27.1803 14.2061 27.7497 14.1367 28.333 14.1367V12.1787H11.667V14.9697ZM11.667 21.8867H20.542C20.542 21.4147 20.5907 20.9424 20.688 20.4697C20.7847 19.9977 20.9163 19.5534 21.083 19.1367H11.667V21.8867ZM11.667 28.8447H17.958C18.3747 28.5114 18.8193 28.2337 19.292 28.0117C19.764 27.7897 20.25 27.5814 20.75 27.3867V26.0537H11.667V28.8447ZM7.792 32.7197V8.30372V15.1787V14.1367V32.7197Z" fill="white"/>
</g>
</svg>
