<svg width="40" height="41" viewBox="0 0 40 41" fill="none" xmlns="http://www.w3.org/2000/svg">
<mask id="mask0_189_1619" style="mask-type:alpha" maskUnits="userSpaceOnUse" x="0" y="0" width="40" height="41">
<rect y="0.511719" width="40" height="40" fill="#D9D9D9"/>
</mask>
<g mask="url(#mask0_189_1619)">
<path d="M27 23.1367C27.6947 23.1367 28.3057 22.8727 28.833 22.3447C29.361 21.8174 29.625 21.2064 29.625 20.5117C29.625 19.7897 29.361 19.1717 28.833 18.6577C28.3057 18.1437 27.6947 17.8867 27 17.8867C26.3053 17.8867 25.6943 18.1437 25.167 18.6577C24.639 19.1717 24.375 19.7897 24.375 20.5117C24.375 21.2064 24.639 21.8174 25.167 22.3447C25.6943 22.8727 26.3053 23.1367 27 23.1367ZM7.792 35.5117C7.042 35.5117 6.389 35.2341 5.833 34.6787C5.27767 34.1227 5 33.4697 5 32.7197V8.30372C5 7.55372 5.27767 6.90072 5.833 6.34472C6.389 5.78939 7.042 5.51172 7.792 5.51172H32.208C32.958 5.51172 33.611 5.78939 34.167 6.34472C34.7223 6.90072 35 7.55372 35 8.30372V13.3867H32.208V8.30372H7.792V32.7197H32.208V27.6367H35V32.7197C35 33.4697 34.7223 34.1227 34.167 34.6787C33.611 35.2341 32.958 35.5117 32.208 35.5117H7.792ZM22.167 28.4697C21.2223 28.4697 20.4583 28.1781 19.875 27.5947C19.2917 27.0114 19 26.2614 19 25.3447V15.7197C19 14.7757 19.2917 14.0121 19.875 13.4287C20.4583 12.8454 21.2223 12.5537 22.167 12.5537H33.542C34.486 12.5537 35.2497 12.8454 35.833 13.4287C36.4163 14.0121 36.708 14.7757 36.708 15.7197V25.3447C36.708 26.2614 36.4163 27.0114 35.833 27.5947C35.2497 28.1781 34.486 28.4697 33.542 28.4697H22.167ZM33.958 25.7197V15.3447H21.792V25.7197H33.958Z" fill="white"/>
</g>
</svg>
