<svg width="40" height="41" viewBox="0 0 40 41" fill="none" xmlns="http://www.w3.org/2000/svg">
<mask id="mask0_192_1567" style="mask-type:alpha" maskUnits="userSpaceOnUse" x="0" y="0" width="40" height="41">
<rect y="0.511719" width="40" height="40" fill="white"/>
</mask>
<g mask="url(#mask0_192_1567)">
<path d="M21.542 18.5537L14.625 11.6367L16.625 9.67872L21.542 14.6367L31.208 5.01172L33.125 6.92872L21.542 18.5537ZM23.5 37.9697L10.958 34.3867V36.8037H1.66699V19.7197H14.667L25.208 23.6787C26.014 23.9841 26.6807 24.4841 27.208 25.1787C27.736 25.8727 28 26.7754 28 27.8867H32.292C33.514 27.8867 34.5487 28.3174 35.396 29.1787C36.2433 30.0394 36.667 31.1921 36.667 32.6367V33.8867L23.5 37.9697ZM4.45799 34.0117H8.16699V22.5117H4.45799V34.0117ZM23.375 35.0537L33.792 31.8867C33.6527 31.4147 33.4513 31.0884 33.188 30.9077C32.924 30.7271 32.6253 30.6367 32.292 30.6367H23.875C23.0137 30.6367 22.236 30.5811 21.542 30.4697C20.8473 30.3591 20.1527 30.1924 19.458 29.9697L16.25 28.9697L17.167 26.3037L20.292 27.3037C20.9307 27.5257 21.5693 27.6784 22.208 27.7617C22.8473 27.8451 23.8197 27.8867 25.125 27.8867C25.125 27.5534 25.0487 27.2341 24.896 26.9287C24.7433 26.6227 24.528 26.4144 24.25 26.3037L14.208 22.5117H10.958V31.5117L23.375 35.0537Z" fill="white"/>
</g>
</svg>
