<svg width="40" height="41" viewBox="0 0 40 41" fill="none" xmlns="http://www.w3.org/2000/svg">
<mask id="mask0_189_1583" style="mask-type:alpha" maskUnits="userSpaceOnUse" x="0" y="0" width="40" height="41">
<rect y="0.511719" width="40" height="40" fill="#D9D9D9"/>
</mask>
<g mask="url(#mask0_189_1583)">
<path d="M6.66699 35.5117V19.1787L3.33299 21.7197L1.66699 19.4697L6.66699 15.6787V10.8037H9.45799V13.5537L20 5.51171L38.333 19.5117L36.667 21.6787L33.333 19.1787V35.5117H6.66699ZM9.45799 32.7197H18.625V26.0537H21.375V32.7197H30.542V17.0537L20 9.01171L9.45799 17.0537V32.7197ZM6.66699 8.84471C6.66699 7.53938 7.13199 6.42838 8.06199 5.51171C8.99266 4.59504 10.097 4.13671 11.375 4.13671C11.9303 4.13671 12.3957 3.94238 12.771 3.55371C13.1457 3.16438 13.333 2.70604 13.333 2.17871H16.125C16.125 3.48404 15.6667 4.59504 14.75 5.51171C13.8333 6.42838 12.7083 6.88671 11.375 6.88671C10.847 6.88671 10.3957 7.07438 10.021 7.44971C9.64566 7.82438 9.45799 8.28938 9.45799 8.84471H6.66699Z" fill="white"/>
</g>
</svg>
