<svg width="40" height="41" viewBox="0 0 40 41" fill="none" xmlns="http://www.w3.org/2000/svg">
<mask id="mask0_189_1589" style="mask-type:alpha" maskUnits="userSpaceOnUse" x="0" y="0" width="40" height="41">
<rect y="0.511719" width="40" height="40" fill="#D9D9D9"/>
</mask>
<g mask="url(#mask0_189_1589)">
<path d="M15.292 21.8867V13.9697L20 10.8447L24.708 13.9697V21.8867H21.958V16.8867H18.042V21.8867H15.292ZM20 33.5117C23.5833 30.2337 26.236 27.2614 27.958 24.5947C29.6807 21.9281 30.542 19.5671 30.542 17.5117C30.542 14.3171 29.528 11.7061 27.5 9.67873C25.472 7.65073 22.972 6.63673 20 6.63673C17.028 6.63673 14.528 7.65073 12.5 9.67873C10.472 11.7061 9.45799 14.3171 9.45799 17.5117C9.45799 19.5671 10.333 21.9281 12.083 24.5947C13.833 27.2614 16.472 30.2337 20 33.5117ZM20 37.1787C15.528 33.3727 12.1877 29.8377 9.97899 26.5737C7.77099 23.3104 6.66699 20.2897 6.66699 17.5117C6.66699 13.3451 8.00733 10.0257 10.688 7.55373C13.368 5.08106 16.472 3.84473 20 3.84473C23.528 3.84473 26.632 5.08106 29.312 7.55373C31.9927 10.0257 33.333 13.3451 33.333 17.5117C33.333 20.2897 32.229 23.3104 30.021 26.5737C27.8123 29.8377 24.472 33.3727 20 37.1787Z" fill="white"/>
</g>
</svg>
